<svg width="131" height="150" viewBox="0 0 131 150" fill="none" xmlns="http://www.w3.org/2000/svg">
<path fill-rule="evenodd" clip-rule="evenodd" d="M55.7025 0.569011C52.0653 1.52247 50.028 2.74969 45.5965 6.6561C42.3036 9.55914 41.3198 10.044 39.2735 9.7724C37.938 9.59544 37.7159 9.65534 36.979 10.3922C36.2025 11.1687 36.1699 11.3209 36.3072 13.5288C36.5404 17.2758 38.9643 22.6959 41.8631 25.9525C43.0613 27.2983 43.1082 27.4305 43.2827 29.9569C43.4851 32.8818 44.1633 35.8175 45.0278 37.5123L45.6041 38.6422L44.173 39.1658C34.8513 42.5758 28.2923 46.1104 24.326 49.862C20.8585 53.1419 15.0633 60.6486 6.86513 72.4804C3.76396 76.9561 2.35857 79.2402 2.35857 79.805C2.35857 80.3107 2.77844 81.1163 3.453 81.9043L4.54742 83.1826L3.48536 85.513C1.5125 89.8429 0.376933 94.4393 0.0505416 99.4163C-0.474589 107.432 2.83863 111.454 22.0328 126.106C26.9622 129.869 30.7507 133.376 34.3473 137.506L36.2379 139.676V144.099C36.2379 148.39 36.2597 148.543 36.9806 149.263C37.9628 150.246 39.353 150.246 40.3352 149.263C41.0225 148.576 41.0778 148.3 41.0778 145.558V142.595L43.5734 142.59C49.3568 142.579 52.4991 139.221 53.0642 132.444C53.2469 130.255 53.1988 129.965 52.3551 128.178C49.4285 121.975 36.8181 109.741 26.2556 102.857C24.3423 101.611 22.7207 100.547 22.6523 100.495C22.5836 100.442 22.675 100.075 22.8556 99.6792C23.1142 99.1114 23.3532 98.9916 23.9866 99.1126C24.8905 99.2853 25.5947 98.84 28.6756 96.1475C31.3333 93.825 33.275 92.4701 33.5415 92.7523C34.1671 93.4145 36.2379 103.625 36.2379 106.046C36.2379 108.554 38.6712 109.788 40.3352 108.124C41.2357 107.224 41.2775 106.208 40.6014 101.645C39.2841 92.7514 32.48 72.059 30.3928 70.5967C29.414 69.9113 28.1477 70.0426 27.2696 70.9207C26.2798 71.9105 26.3896 72.7308 27.9959 76.3484C28.9729 78.5487 32.003 86.7917 32.003 87.2488C32.003 87.3746 24.8269 93.1837 24.2322 93.5397C23.6297 93.9 16.8747 88.5537 12.1781 83.9994L7.78895 79.743L8.29382 78.9531C9.70314 76.748 16.169 67.638 19.16 63.6436C26.1495 54.3086 28.4653 51.987 33.818 48.9506C41.0261 44.8614 53.1338 40.9211 63.1599 39.4011C68.5404 38.5853 76.058 38.6476 80.0996 39.5418C88.8414 41.4753 99.2557 45.8237 106.918 50.7389C110.644 53.1298 112.188 55.0679 115.268 61.2237C117.904 66.4922 125.171 84.657 125.171 85.9783C125.171 86.5231 121.975 87.9469 117.758 89.2809C114.422 90.3357 108.565 91.7753 108.409 91.5784C108.363 91.5206 108.431 89.8396 108.558 87.8432C108.686 85.8467 108.801 80.838 108.814 76.7129L108.837 69.2122L108.094 68.4699C107.112 67.4874 105.721 67.4874 104.739 68.4699L103.997 69.2122V76.195C103.997 84.3285 103.697 89.7607 102.47 103.841C101.611 113.695 101.577 114.756 101.577 131.306V148.521L102.319 149.263C103.302 150.246 104.692 150.246 105.674 149.263L106.417 148.521L106.435 138.449L106.454 128.377L110.292 125.311C123.056 115.116 125.287 111.565 125.686 100.806L125.867 95.9225L125.079 95.1345C124.051 94.1063 122.68 94.0882 121.679 95.0894C120.981 95.7873 120.936 96.0302 120.936 99.151C120.936 108.522 119.461 111.338 110.654 118.774L106.568 122.225L106.483 118.362C106.404 114.771 107.709 97.3669 108.106 96.725C108.195 96.5816 108.52 96.4642 108.828 96.4642C109.882 96.4642 119.231 93.9938 122.08 92.9626C123.644 92.3963 125.73 91.503 126.717 90.9773C128.704 89.918 130.616 88.0135 130.616 87.093C130.616 86.7645 129.718 84.0084 128.621 80.9684C123.048 65.5297 117.914 54.6483 114.133 50.2598C112.011 47.7962 103.701 42.8986 96.2831 39.7387C92.1489 37.9776 85.8924 35.8843 82.5952 35.1586C80.8144 34.7669 80.0996 34.4789 80.0996 34.1531C80.0996 33.9021 80.4333 31.4507 80.841 28.7055C82.08 20.3661 82.388 16.3293 81.9929 13.6168C81.3474 9.18889 79.7475 5.95553 77.3391 4.21074C76.0032 3.24306 70.4839 1.40238 66.3361 0.541484C62.809 -0.190552 58.5581 -0.17936 55.7025 0.569011ZM65.4846 5.24255C69.1427 6.013 74.1296 7.79681 75.0262 8.65559C75.4863 9.09663 76.166 10.2149 76.5362 11.1409C77.1328 12.6328 77.2081 13.3585 77.1996 17.5132C77.1878 23.1139 76.8998 24.0846 74.9557 25.0765C71.8448 26.6634 65.5015 27.5101 60.0957 27.0596C57.7329 26.863 57.4564 26.7738 57.1545 26.1107C56.5386 24.7595 54.3619 22.6959 53.0061 22.178C51.3221 21.5349 49.4533 21.7209 47.4033 22.7355L45.8712 23.4935L44.9495 22.2427C44.0514 21.0243 41.9079 16.786 41.5497 15.5207C41.3979 14.9853 41.567 14.8316 42.6611 14.5083C44.5127 13.9616 45.562 13.2481 48.5561 10.499C53.5067 5.95371 55.8523 4.85294 60.6447 4.8248C62.1726 4.81573 64.3505 5.00388 65.4846 5.24255ZM17.6209 24.9107C16.3837 26.1476 16.6315 26.9511 19.6567 31.5124C21.1849 33.8165 22.6735 35.829 22.9642 35.9847C24.4685 36.7897 26.5581 35.6054 26.5581 33.9477C26.5581 33.0188 21.3782 24.9361 20.4722 24.4512C19.5481 23.9567 18.3877 24.1436 17.6209 24.9107ZM109.546 25.1512C108.115 26.6758 103.997 33.1334 103.997 33.8513C103.997 34.8449 104.493 35.5446 105.492 35.9581C107.149 36.6448 107.664 36.2431 110.425 32.1137C114.143 26.5521 114.255 26.2311 112.934 24.9107C111.876 23.8526 110.684 23.9373 109.546 25.1512ZM52.0112 27.1174C52.2532 27.4087 52.7617 28.3356 53.1416 29.1777C53.5216 30.0196 54.076 30.8605 54.3737 31.0465C54.671 31.2323 56.3275 31.5493 58.0541 31.7507C63.2927 32.3624 70.2002 31.7988 75.1357 30.3574C75.7497 30.1781 75.7594 30.2259 75.4721 32.0103L75.1762 33.8479H72.3763C67.0839 33.8479 59.5947 34.8725 53.3685 36.4485C51.7266 36.8641 50.3481 37.1636 50.3051 37.1143C49.3311 35.9905 48.0506 31.4833 48.0404 29.1432C48.0358 28.0425 48.1514 27.8498 49.1696 27.2596C50.5499 26.4592 51.428 26.4153 52.0112 27.1174ZM124.718 31.7722C124.385 31.9516 122.309 33.9363 120.104 36.1829C115.681 40.6906 115.409 41.2454 116.894 42.7304C118.378 44.2147 118.933 43.9428 123.445 39.5197C128.583 34.4816 129.001 33.7172 127.454 32.1706C126.663 31.3802 125.705 31.2404 124.718 31.7722ZM3.1012 34.5905C2.6166 35.0748 2.35857 35.6753 2.35857 36.3181C2.35857 37.1826 2.88885 37.8336 6.68061 41.6257C10.362 45.307 11.1403 45.9477 11.9301 45.9477C13.2299 45.9477 14.4583 44.7477 14.4583 43.4781C14.4583 42.6127 13.9296 41.9632 10.1363 38.17C6.34424 34.3782 5.69327 33.8479 4.82874 33.8479C4.18594 33.8479 3.58549 34.106 3.1012 34.5905ZM16.6514 94.4403C17.941 95.4409 18.9958 96.3835 18.9958 96.535C18.9958 96.6863 18.6673 97.379 18.2658 98.0741C17.8641 98.7692 17.3662 99.9169 17.1587 100.624C16.6097 102.499 17.0413 103.191 19.5475 104.454C25.9646 107.685 36.381 116.194 43.2528 123.818C47.0188 127.995 48.3377 129.952 48.3377 131.363C48.3377 133.502 47.6952 135.536 46.6634 136.662C45.7127 137.699 45.5632 137.755 43.7259 137.755C41.3238 137.755 40.0064 136.973 37.745 134.207C36.8919 133.163 35.3816 131.321 34.3885 130.113C32.9541 128.368 31.0172 126.748 24.9576 122.229C20.7635 119.1 16.0985 115.505 14.5908 114.239C10.3946 110.717 6.79919 106.787 5.66453 104.482C4.70805 102.539 4.69232 102.442 4.88349 99.5579C5.10734 96.1763 6.21598 91.2852 7.32886 88.7691L8.09387 87.0391L11.2005 89.8299C12.909 91.3651 15.3619 93.4396 16.6514 94.4403ZM55.0797 103.509C51.2879 107.301 50.7577 107.952 50.7577 108.816C50.7577 110.137 51.9068 111.286 53.2278 111.286C54.0924 111.286 54.7433 110.756 58.5354 106.964C62.3272 103.172 62.8574 102.521 62.8574 101.657C62.8574 100.336 61.7083 99.1867 60.3873 99.1867C59.5227 99.1867 58.8718 99.717 55.0797 103.509ZM66.4251 116.44C63.4794 117.926 60.9269 119.407 60.7533 119.732C59.9344 121.262 61.0633 123.386 62.6956 123.386C63.7577 123.386 74.2488 118.095 74.6414 117.361C75.4842 115.787 74.3235 113.69 72.6265 113.722C72.1616 113.731 69.3708 114.954 66.4251 116.44ZM61.1801 133.809C60.7291 134.259 60.4375 134.899 60.4375 135.439C60.4375 137.168 61.0927 137.532 66.7902 138.973C69.7014 139.709 72.396 140.314 72.7777 140.318C73.7612 140.329 74.9572 139.031 74.9572 137.953C74.9572 136.224 74.302 135.86 68.6045 134.419C65.6933 133.683 62.9987 133.078 62.617 133.074C62.2349 133.069 61.5885 133.4 61.1801 133.809Z" fill="white"/>
</svg>
