<svg width="130" height="129" viewBox="0 0 130 129" fill="none" xmlns="http://www.w3.org/2000/svg">
<path fill-rule="evenodd" clip-rule="evenodd" d="M74.8884 0.338471C71.1189 1.72236 68.8982 4.29686 68.2919 7.98631C68.1588 8.79641 68.0492 11.5255 68.0484 14.0514L68.0469 18.6438L69.9471 19.9968C71.8446 21.3478 71.8471 21.3516 71.8514 22.5326L71.8555 23.7154L66.8408 23.8059C60.8354 23.9145 59.8251 24.1973 57.3777 26.4551C55.6763 28.0247 55.9533 27.5647 48.2625 41.5896L42.7131 51.7095L52.0145 61.0071L61.3158 70.3047L57.5085 70.3037C53.79 70.3027 53.6034 70.2762 49.5117 69.1668C44.0743 67.6923 41.665 67.3669 39.165 67.7687C36.0026 68.277 33.0284 69.5 30.7242 71.2396C29.5001 72.1638 27.4653 74.4056 26.7396 75.6298L26.2968 76.3767H13.1483H0V78.2741V80.1716H12.6953H25.3906V83.8401V87.5085H12.6953H0V89.406V91.3035H12.6953H25.3906V94.5924V97.8814H12.6953H0V99.7789V101.676H4.31641H8.63281V115.338V129H10.5371H12.4414V115.338V101.676H14.3457H16.25V115.338V129H18.1543H20.0586V115.338V101.676H22.7246H25.3906V107.495V113.314H43.0371H60.6836V107.495V101.676H62.5879H64.4922V115.338V129H66.3965H68.3008V115.338V101.676H71.7285H75.1562V115.338V129H77.0605H78.9648V115.338V101.676H82.5195H86.0742V115.338V129H87.9785H89.8828V115.338V101.676H91.6602H93.4375V102.679C93.4375 105.186 95.1473 107.684 97.627 108.801C98.7228 109.295 99.4259 109.387 102.769 109.473L106.641 109.573V119.287V129H108.545H110.449V119.26V109.519H112.354H114.258V119.26V129H116.162H118.066V119.26V109.519H123.914C128.493 109.519 129.79 109.448 129.889 109.189C129.959 109.007 129.907 107.897 129.773 106.722C129.57 104.947 129.163 103.625 128.276 101.866C128.223 101.762 128.59 101.676 129.09 101.676H130V99.7789V97.8814L126.89 97.873C124.481 97.8667 123.464 97.7544 122.383 97.3754C121.127 96.9352 120.239 96.8851 113.56 96.8777L106.133 96.8694V93.0744V89.2795H107.65H109.167L110.611 91.1906L112.055 93.1018L117.409 93.0249C122.597 92.9502 122.809 92.927 124.205 92.275C127.988 90.5078 129.941 87.2026 129.695 82.9816C129.555 80.5615 128.734 78.7498 126.989 77.0114C124.652 74.6828 122.012 74.0167 115.654 74.151L112.1 74.2262L110.726 76.0604L109.353 77.8946H107.608C106.167 77.8946 105.839 77.8175 105.727 77.4519C104.355 72.9933 100.596 70.3047 95.7341 70.3047H94.0748L103.278 61.1323C108.339 56.0876 112.48 51.8567 112.48 51.7305C112.48 51.6045 109.653 46.3232 106.196 39.9945C99.1113 27.021 98.6563 26.3749 95.5233 24.8308L93.5934 23.8798L88.5008 23.7533L83.4082 23.6268L83.3308 22.5637C83.2538 21.5072 83.2653 21.4918 85.1716 20.0871L87.0898 18.6734V13.4164C87.0898 9.31682 86.9997 7.85678 86.6803 6.78534C85.8046 3.84602 83.4214 1.37905 80.5449 0.433598C78.9108 -0.103767 76.2163 -0.1488 74.8884 0.338471ZM80.6406 4.66623C81.525 5.21094 82.0582 5.79258 82.5718 6.77218C83.2683 8.10041 83.2812 8.20515 83.2812 12.4694V16.8136L81.3706 18.1753L79.4602 19.5366L79.5298 23.4791L79.5996 27.4218L80.8344 27.5L82.0688 27.5784L81.965 29.2052C81.8073 31.6736 80.5213 33.0881 78.2359 33.307C76.6144 33.4621 75.8982 33.2776 74.9128 32.4516C73.8611 31.5699 73.4226 30.6649 73.2217 28.9615L73.0552 27.5483H74.3595H75.6641V23.5309V19.5136L73.7598 18.0854L71.8555 16.6573V12.854C71.8555 10.7622 71.9817 8.55151 72.1358 7.94128C72.4862 6.55511 73.9172 4.86003 75.269 4.22982C76.8155 3.50928 79.058 3.69118 80.6406 4.66623ZM69.4494 29.256C69.7953 32.6606 71.5609 35.2181 74.4839 36.5471C75.8062 37.1485 76.1975 37.2105 78.0386 37.1093C79.6151 37.0225 80.4169 36.8376 81.4082 36.3318C84.0384 34.9899 85.8203 32.0516 85.8203 29.0566V27.5483H89.1C94.7012 27.5483 95.435 28.135 99.6958 36.0211C101.909 40.1169 102.494 41.3956 102.254 41.6109C102.083 41.7642 101.3 42.2426 100.513 42.6739L99.0823 43.4582L96.4503 39.1085L93.8184 34.7587L92.1939 34.6823C91.3001 34.6405 90.4764 34.6985 90.3629 34.8116C90.2494 34.9247 89.2381 39.1641 88.1154 44.2327L86.0742 53.4481V57.8952V62.3427L82.7465 65.6278C79.1383 69.1903 78.4682 70.22 78.4682 72.2022C78.4682 75.2035 81.0288 77.8759 83.916 77.8876C85.7777 77.8951 86.7793 77.4329 88.5919 75.7292L90.3254 74.0997H93.9897C97.4083 74.0997 97.7415 74.143 98.9529 74.7446C99.6671 75.0993 100.569 75.8039 100.957 76.3106C101.73 77.3214 102.324 79.2416 102.324 80.7328V81.6896L106.831 81.6835L111.338 81.6774L112.706 79.7562L114.074 77.8349L117.911 77.944C122.034 78.0614 122.756 78.2537 124.247 79.6312C126.436 81.6547 126.538 85.3998 124.464 87.6036C123.124 89.0278 122.161 89.2686 117.812 89.2669L113.877 89.2653L112.494 87.3749L111.112 85.4845H106.718H102.324V93.0744V100.664L111.401 100.675C121.192 100.687 121.548 100.729 123.299 102.059C124.232 102.769 125.684 104.799 125.684 105.394C125.684 105.661 123.23 105.724 112.836 105.724C98.6185 105.724 98.7259 105.736 97.725 104.1C97.2852 103.382 97.2479 102.704 97.2471 95.4147L97.2461 87.5085H78.9648H60.6836V80.8041V74.0997H62.885H65.0863L66.7687 75.7181C68.5374 77.4195 69.5696 77.8954 71.4746 77.8876C74.3575 77.8759 76.9333 75.1314 76.9298 72.0757C76.9275 70.3189 75.9007 68.8412 72.0093 64.9951L68.3008 61.3299V57.4912C68.3008 53.904 68.1926 53.0337 66.6504 44.2074C65.7427 39.0123 65 34.7329 65 34.6972C65 34.6613 64.218 34.6322 63.262 34.6322C61.9194 34.6322 61.4385 34.7329 61.148 35.0749C60.9413 35.3186 59.7579 37.254 58.5183 39.3759C57.2785 41.4978 56.1714 43.2341 56.0579 43.2341C55.7614 43.2341 53.0926 41.7098 52.9298 41.4474C52.7252 41.1175 58.5713 30.5868 59.4892 29.6315C59.9259 29.1771 60.853 28.5223 61.5489 28.1767C62.6973 27.6065 63.1137 27.5483 66.0453 27.5483H69.276L69.4494 29.256ZM75.1562 42.3486V44.2461H77.0605H78.9648V42.3486V40.4511H77.0605H75.1562V42.3486ZM95.8019 45.3124L98.5469 49.9054L94.215 54.222L89.8828 58.5386L89.8795 56.2624C89.8767 54.431 90.1586 52.6893 91.323 47.3453C92.1187 43.6928 92.8342 40.7077 92.9132 40.7117C92.9921 40.716 94.2919 42.7863 95.8019 45.3124ZM63.3808 47.5892C63.99 51.1076 64.4891 54.7829 64.4902 55.7564L64.4922 57.5264L60.6432 53.6912L56.7943 49.856L59.4021 45.3926C60.8364 42.9378 62.0692 40.9885 62.1418 41.0606C62.2141 41.1329 62.7717 44.0707 63.3808 47.5892ZM54.0224 46.7242C54.0635 46.8469 53.6367 47.7324 53.074 48.692L52.0508 50.4364L62.5879 60.9469C74.0073 72.3373 73.8486 72.1367 72.5017 73.4786C71.1463 74.8291 71.4365 75.0613 58.9393 62.6177L47.4079 51.1357L49.143 47.9565L50.8785 44.7774L52.4131 45.6391C53.2571 46.1129 53.9812 46.6012 54.0224 46.7242ZM96.442 62.6273C86.5249 72.5018 84.8171 74.0997 84.1806 74.0997C83.1827 74.0997 82.2656 73.2033 82.2656 72.2283C82.2656 71.5502 83.5341 70.1916 92.7971 60.9509L103.329 50.4445L102.204 48.5561L101.079 46.6678L102.771 45.7276L104.462 44.7875L106.213 47.9712L107.964 51.1547L96.442 62.6273ZM75.1562 51.4565V53.354H77.0605H78.9648V51.4565V49.559H77.0605H75.1562V51.4565ZM75.1562 60.5644V62.4618H77.0605H78.9648V60.5644V58.6669H77.0605H75.1562V60.5644ZM48.5494 72.8304C52.1244 73.7857 53.7423 74.0997 55.0875 74.0997H56.875V91.8095V109.519H43.0371H29.1992L29.2002 94.1497L29.2015 78.7801L29.8985 77.7413C32.0897 74.4767 34.8928 72.5364 38.6468 71.6866C41.0125 71.1508 43.2143 71.4053 48.5494 72.8304ZM33.0601 81.4998L33.1348 83.3341L34.9756 83.4085L36.8164 83.4828V81.5742V79.6656H34.9009H32.9855L33.0601 81.4998ZM49.2578 81.5631V83.4606H51.1621H53.0664V81.5631V79.6656H51.1621H49.2578V81.5631ZM33.0601 89.0898L33.1348 90.924L34.9756 90.9984L36.8164 91.0727V89.1641V87.2555H34.9009H32.9855L33.0601 89.0898ZM49.3101 89.0898L49.3848 90.924L51.2256 90.9984L53.0664 91.0727V89.1641V87.2555H51.1509H49.2355L49.3101 89.0898ZM93.4375 94.5924V97.8814H77.0605H60.6836V94.5924V91.3035H77.0605H93.4375V94.5924ZM33.0601 96.6797L33.1348 98.5139L34.9756 98.5883L36.8164 98.6626V96.754V94.8454H34.9009H32.9855L33.0601 96.6797ZM49.3101 96.6797L49.3848 98.5139L51.2256 98.5883L53.0664 98.6626V96.754V94.8454H51.1509H49.2355L49.3101 96.6797ZM33.1772 102.351C33.084 102.444 33.0078 103.298 33.0078 104.249V105.977H34.9121H36.8164V104.08V102.182H35.0815C34.127 102.182 33.2701 102.258 33.1772 102.351ZM49.4272 102.351C49.334 102.444 49.2578 103.298 49.2578 104.249V105.977H51.1621H53.0664V104.08V102.182H51.3315C50.377 102.182 49.5201 102.258 49.4272 102.351Z" fill="#1C1C1C"/>
</svg>
