<svg width="150" height="141" viewBox="0 0 150 141" fill="none" xmlns="http://www.w3.org/2000/svg">
<path fill-rule="evenodd" clip-rule="evenodd" d="M52.4199 0.253738C41.5731 2.08408 33.8619 10.885 32.2066 23.3237C31.4276 29.1794 32.9488 36.3424 36.1742 42.0018C38.9725 46.912 42.5537 51.1773 49.2978 57.631C54.2723 62.3911 73.4959 78.8234 74.3375 79.0346C74.7323 79.1338 75.3829 79.1329 75.7833 79.0323C76.4737 78.8589 89.16 68.1605 97.0549 61.0937C104.936 54.0392 110.891 47.3444 113.786 42.2851C119.056 33.0744 119.468 22.4206 114.907 13.3149C110.828 5.17279 103.887 0.547063 94.9963 0.0466506C89.9112 -0.239634 85.7079 0.908145 81.6152 3.70001C79.9529 4.83371 76.5726 8.13772 75.5527 9.62546L75.0555 10.3506L74.5765 9.62546C74.3131 9.22654 72.8741 7.68835 71.3784 6.20706C69.0834 3.93467 68.231 3.30784 65.9176 2.19173C64.3571 1.43877 62.2017 0.671726 60.9149 0.411253C58.5463 -0.0680394 54.7454 -0.13873 52.4199 0.253738ZM59.5428 6.11319C64.1579 6.96882 68.4469 10.4852 71.912 16.2549C73.9218 19.6014 76.1892 19.6014 78.1991 16.2549C83.2625 7.82445 89.515 4.58615 97.4949 6.26132C102.742 7.36305 107.241 10.9759 109.73 16.0865C111.66 20.0496 112.145 22.1985 112.112 26.6462C112.078 31.0496 111.455 33.7159 109.538 37.6565C107.193 42.4775 102.978 47.5934 96.0617 54.014C91.3688 58.3699 75.419 72.1116 75.0555 72.1116C74.7182 72.1116 59.0544 58.6474 54.3679 54.329C47.4235 47.9302 43.1876 42.8401 40.7286 37.9392C38.6724 33.8415 38.0338 31.1983 37.9995 26.6462C37.9664 22.1956 38.4518 20.0452 40.384 16.0865C43.9986 8.68008 51.7169 4.66212 59.5428 6.11319ZM8.94541 29.5935C7.08925 30.0599 4.44757 31.6234 3.16515 33.0146C2.50664 33.7291 1.54981 35.1958 1.03943 36.2731L0.111057 38.2325L0.0271662 60.6719C-0.0449917 79.9929 0.00839342 83.5565 0.411422 86.3164C1.90855 96.5614 7.72342 106.057 16.143 112.005C17.3278 112.842 22.0922 115.428 26.7303 117.753L35.1634 121.979V130.177C35.1634 135.909 35.2687 138.607 35.5139 139.144C36.251 140.762 36.1079 140.75 53.6428 140.75C71.1778 140.75 71.0346 140.762 71.7718 139.144C72.3241 137.932 72.2566 98.46 71.6978 95.8231C70.5407 90.3637 66.3972 85.4367 61.2713 83.426C60.1922 83.0024 57.7444 82.3926 55.8325 82.0705C50.655 81.1991 45.0205 79.122 41.1448 76.6566C40.1942 76.0518 37.3651 73.5354 34.8577 71.0641C29.892 66.1703 28.1095 65.0023 25.017 64.6156L23.4582 64.4209L23.3708 51.3107L23.2837 38.2006L22.1881 35.9848C20.2056 31.9748 16.6842 29.6217 12.3571 29.4158C11.1069 29.3562 9.57166 29.4363 8.94541 29.5935ZM135.662 29.5935C133.806 30.0599 131.164 31.6234 129.881 33.0146C129.223 33.7291 128.266 35.1958 127.756 36.2731L126.827 38.2325L126.74 51.3269L126.653 64.4209L125.094 64.6156C121.998 65.0025 120.251 66.1535 115.119 71.1855C110.125 76.0823 108.514 77.25 104.134 79.1499C100.572 80.6948 98.0783 81.4284 94.1216 82.0952C92.2663 82.4081 90.0224 82.9528 89.1351 83.3063C84.2691 85.244 80.6448 89.0405 78.8212 94.1109L78.1354 96.0175L78.051 117.123C77.9882 132.826 78.0551 138.441 78.3123 139.063C79.0189 140.769 78.8118 140.75 96.4682 140.75C114.003 140.75 113.86 140.762 114.597 139.144C114.842 138.607 114.948 135.909 114.948 130.178V121.98L120.008 119.458C122.791 118.071 125.295 116.651 125.574 116.303C125.853 115.955 126.084 115.165 126.088 114.548C126.096 113.095 124.821 111.71 123.474 111.71C122.909 111.71 120.169 112.912 116.179 114.908C111.157 117.421 109.713 118.272 109.435 118.882C109.188 119.424 109.081 121.955 109.081 127.27V134.883H96.46H83.8388L83.9204 115.89L84.0019 96.8975L84.6868 95.2006C85.5653 93.0239 87.9994 90.3781 90.1019 89.3142C91.1435 88.7874 92.9213 88.2937 95.1861 87.903C101.096 86.8834 108.654 83.9859 112.894 81.1149C113.62 80.6233 116.332 78.1461 118.921 75.61C123.694 70.9342 124.54 70.3581 126.647 70.3534C129.735 70.346 132.553 73.1634 132.545 76.2521C132.54 78.5612 132.19 79.0041 123.383 87.8654L114.867 96.4329L115.036 97.6915C115.259 99.3591 116.293 100.271 117.959 100.271C119.164 100.271 119.273 100.175 127.638 91.8377C135.343 84.1561 136.194 83.2098 137.182 81.2199C138.206 79.1578 138.267 78.8771 138.267 76.2181C138.267 73.5521 138.208 73.2813 137.162 71.1662C136.409 69.6412 135.583 68.5042 134.564 67.5879C133.742 66.8493 132.948 66.2451 132.798 66.2451C132.632 66.2451 132.558 60.9036 132.609 52.6788L132.694 39.1125L133.39 37.9929C133.773 37.3769 134.621 36.5189 135.275 36.0863C136.262 35.4331 136.792 35.2993 138.392 35.2993C140.703 35.2993 142.131 36.0435 143.347 37.8809L144.133 39.07L144.13 62.4107L144.126 85.7512L143.344 88.5949C142.914 90.159 141.97 92.7989 141.247 94.4614C139.761 97.8766 139.741 98.6809 141.111 99.834C142.115 100.679 143.532 100.791 144.515 100.102C145.895 99.1359 148.421 92.9869 149.446 88.0978C149.962 85.6362 150 83.861 150 61.8302V38.2023L148.904 35.9857C146.922 31.975 143.401 29.6217 139.073 29.4158C137.823 29.3562 136.288 29.4363 135.662 29.5935ZM14.9196 36.1417C15.5276 36.5439 16.3384 37.3769 16.7212 37.9929L17.4172 39.1125L17.5017 52.6788C17.5527 60.9036 17.4788 66.2451 17.3134 66.2451C17.1635 66.2451 16.3686 66.8493 15.547 67.5879C14.528 68.5042 13.7023 69.6412 12.9487 71.1662C11.9033 73.2813 11.844 73.5521 11.844 76.2181C11.844 78.8771 11.9051 79.1578 12.9291 81.2199C13.9173 83.2098 14.7676 84.1561 22.4735 91.8377C30.838 100.175 30.9474 100.271 32.1521 100.271C33.8182 100.271 34.8516 99.3591 35.0751 97.6915L35.244 96.4329L26.7282 87.8654C17.9206 79.0041 17.5709 78.5612 17.5656 76.2521C17.5583 73.1634 20.3757 70.346 23.4644 70.3534C25.5708 70.3581 26.4173 70.9342 31.19 75.61C33.7786 78.1461 36.5332 80.6532 37.3111 81.1814C40.9562 83.6565 48.2656 86.4144 54.8211 87.7877C56.8348 88.2095 59.1661 88.8859 60.0015 89.2907C62.0196 90.2689 64.5439 93.0197 65.4242 95.2006L66.1091 96.8975L66.1907 115.89L66.2722 134.883H53.651H41.0299V127.27C41.0299 122.049 40.9213 119.419 40.684 118.899C40.4104 118.298 38.3418 117.131 30.7843 113.314C23.9572 109.867 20.5106 107.948 18.7081 106.593C12.7311 102.101 8.87648 96.2824 6.7619 88.5595L5.9931 85.7512L5.89865 63.0997C5.83265 47.2848 5.90129 40.0872 6.12627 39.2516C6.51287 37.816 8.33911 35.8851 9.706 35.4668C11.2439 34.996 13.6615 35.309 14.9196 36.1417ZM133.166 105.373C130.623 106.783 131.687 110.83 134.6 110.83C136.087 110.83 137.534 109.398 137.534 107.926C137.534 105.723 135.1 104.301 133.166 105.373Z" fill="white"/>
</svg>
